<svg width="512" height="512" viewBox="0 0 512 512" fill="none" xmlns="http://www.w3.org/2000/svg">
<g clip-path="url(#clip0_1_107)">
<path d="M256 20C256 8.95431 264.969 -0.0813169 275.981 0.780454C334.529 5.36225 389.957 29.9735 432.736 70.7967C480.356 116.239 508.642 178.278 511.72 244.029C514.798 309.78 492.431 374.19 449.265 423.883C406.099 473.575 345.451 504.731 279.915 510.88C214.38 517.03 148.995 497.699 97.3382 456.904C45.6815 416.109 11.7236 356.984 2.51666 291.808C-6.69027 226.632 9.56141 160.414 47.8966 106.906C82.3348 58.8377 132.217 24.3452 188.891 8.95212C199.551 6.05691 210.044 13.2664 212.099 24.1193L228.469 110.583C230.523 121.436 223.308 131.753 212.907 135.471C188.531 144.187 167.207 160.155 151.948 181.453C132.781 208.207 124.655 241.316 129.258 273.904C133.862 306.492 150.841 336.054 176.669 356.452C202.497 376.85 235.19 386.515 267.958 383.44C300.725 380.366 331.049 364.788 352.633 339.941C374.216 315.095 385.399 282.89 383.86 250.015C382.321 217.139 368.178 186.12 344.368 163.398C325.413 145.31 301.492 133.588 275.92 129.559C265.009 127.84 256 119.046 256 108L256 20Z" fill="url(#paint0_angular_1_107)"/>
</g>
<defs>
<radialGradient id="paint0_angular_1_107" cx="0" cy="0" r="1" gradientUnits="userSpaceOnUse" gradientTransform="translate(256 256) rotate(-93.9502) scale(224.965 224.965)">
<stop/>
<stop offset="0.5625" stop-opacity="0.12"/>
<stop offset="1" stop-opacity="0"/>
</radialGradient>
<clipPath id="clip0_1_107">
<rect width="512" height="512" fill="white"/>
</clipPath>
</defs>
</svg>
