<svg width="32" height="36" viewBox="0 0 32 36" fill="none" xmlns="http://www.w3.org/2000/svg">
<g clip-path="url(#clip0_12_233)">
<path d="M13.5792 31.8045C14.7142 31.8045 15.6344 32.7247 15.6344 33.8597C15.6344 34.9947 14.7142 35.9148 13.5792 35.9148C12.4442 35.9148 11.524 34.9947 11.524 33.8597C11.524 32.7247 12.4442 31.8045 13.5792 31.8045ZM24.9812 28.0548L27.0121 28.6565L25.4 34.0975C25.2591 34.573 24.8073 34.887 24.3125 34.8533L23.8146 34.8191L23.8024 34.8292L18.6286 34.4661L18.7726 32.3528L22.2486 32.5887L19.973 29.306L21.7137 28.099L23.9924 31.3859L24.9812 28.0548ZM2.87658 24.2934L4.98949 24.4431L4.74199 27.9186L8.01877 25.64L9.22839 27.3788L5.94734 29.6598L9.29634 30.6466L8.69773 32.6785L3.23107 31.0679C2.75381 30.9273 2.43876 30.4734 2.47392 29.9771L2.87658 24.2934ZM16.5189 21.3339L20.3323 25.9379L18.6137 27.3615L16.3442 24.6215L15.6084 28.8342L13.41 28.45L14.1465 24.2307L11.0912 26.0321L9.95843 24.1093L15.0932 21.0843C15.5653 20.8062 16.1694 20.912 16.5189 21.3339ZM27.1881 18.245L29.093 17.2086L31.8681 22.3092C32.1112 22.756 32.011 23.3118 31.6272 23.6456L31.2346 23.9848L27.2283 27.4714L25.8051 25.8351L28.4986 23.4918L24.4867 22.7691L24.8715 20.6349L28.8806 21.3572L27.1881 18.245ZM4.72277 12.9124L6.15778 14.5384L3.50133 16.8813L7.52085 17.583L7.14829 19.7194L3.12434 19.0171L4.85276 22.1418L2.95514 23.1916L0.13555 18.0946C-0.110628 17.6496 -0.0144432 17.0933 0.36686 16.7568L4.72277 12.9124ZM18.3095 11.235L22.1101 15.8266L20.3909 17.2496L18.1219 14.5084L17.3861 18.7224L15.1878 18.3381L15.9218 14.1352L12.8782 15.9194L11.7497 13.994L16.4249 11.2529L16.4295 11.2351L16.4501 11.2378L16.8857 10.9838C17.3577 10.7071 17.9607 10.8135 18.3095 11.235ZM23.207 8.97679L24.0382 6.97378L29.4148 9.20499C29.8841 9.39974 30.1552 9.89422 30.067 10.3946L29.9775 10.8923L29.0594 16.1149L26.9236 15.7387L27.5391 12.2427L23.972 14.2141L22.9238 12.3156L26.4976 10.3426L23.207 8.97679ZM12.9646 5.02967L13.0571 7.19633L9.50541 7.34813L12.1841 10.4094L10.5521 11.8374L7.86885 8.7716L7.24371 12.2717L5.10896 11.8899L6.13202 6.17004C6.22143 5.67015 6.64581 5.29928 7.15317 5.27763L7.65577 5.25515L7.66704 5.24697L12.9646 5.02967ZM20.2298 0.408994L24.0131 5.02962L22.2864 6.44343L20.0409 3.70054L19.2835 7.90894L17.0872 7.5137L17.8458 3.29581L14.78 5.08828L13.6541 3.16146L18.8035 0.152484C19.2773 -0.12439 19.8821 -0.0156197 20.2298 0.408994Z" fill="#201D1E"/>
</g>
<defs>
<clipPath id="clip0_12_233">
<rect width="32" height="36" fill="white"/>
</clipPath>
</defs>
</svg>
